<svg width="184" height="35" viewBox="0 0 184 35" fill="none" xmlns="http://www.w3.org/2000/svg">
    <path
        d="M16.4131 2.12V7.016H5.94913L6.33313 6.616V12.016L5.94913 11.616H15.5011V16.32H5.94913L6.33313 15.92V25H0.429125V2.12H16.4131ZM23.3546 7.36V25H17.7866V7.36H23.3546ZM23.3866 1.32V5.608H17.7546V1.32H23.3866ZM26.7456 25V6.816C26.7456 5.75467 26.8976 4.81867 27.2016 4.008C27.511 3.192 27.9643 2.50933 28.5616 1.96C29.1643 1.40533 29.9056 0.986665 30.7856 0.703999C31.671 0.421332 32.687 0.279999 33.8336 0.279999C34.3403 0.279999 34.8736 0.306665 35.4336 0.359999C35.9936 0.413332 36.559 0.490665 37.1296 0.591999V4.736C36.7243 4.66667 36.3323 4.616 35.9536 4.584C35.5803 4.54667 35.2336 4.528 34.9136 4.528C34.423 4.528 33.9963 4.576 33.6336 4.672C33.2763 4.768 32.9803 4.91467 32.7456 5.112C32.5163 5.304 32.343 5.54933 32.2256 5.848C32.1136 6.14133 32.0576 6.49067 32.0576 6.896V9.368H32.3136V25H26.7456ZM37.1296 7.36V11.712H24.5216V7.36H37.1296ZM37.7954 13.984C37.7954 12.8853 37.9954 11.8987 38.3954 11.024C38.8007 10.1493 39.3767 9.40533 40.1234 8.792C40.8754 8.17333 41.7874 7.70133 42.8594 7.376C43.9367 7.04533 45.1474 6.88 46.4914 6.88C47.862 6.88 49.0834 7.05333 50.1554 7.4C51.2327 7.74133 52.142 8.24 52.8834 8.896C53.6247 9.54667 54.19 10.3467 54.5794 11.296C54.9687 12.2453 55.1634 13.3253 55.1634 14.536V25H49.5954V20.504L49.6194 20.496C49.4967 21.0133 49.3287 21.4933 49.1154 21.936C48.902 22.3787 48.646 22.7867 48.3474 23.16C48.0487 23.528 47.71 23.856 47.3314 24.144C46.9527 24.432 46.5394 24.6747 46.0914 24.872C45.6487 25.0693 45.174 25.2187 44.6674 25.32C44.1607 25.4267 43.6274 25.48 43.0674 25.48C42.198 25.48 41.406 25.3547 40.6914 25.104C39.982 24.8587 39.374 24.512 38.8674 24.064C38.3607 23.6107 37.9687 23.0693 37.6914 22.44C37.414 21.8053 37.2754 21.0987 37.2754 20.32C37.2754 19.4773 37.4434 18.7227 37.7794 18.056C38.1207 17.3893 38.614 16.8267 39.2594 16.368C39.91 15.904 40.702 15.552 41.6354 15.312C42.5687 15.0667 43.6327 14.944 44.8274 14.944H49.7154V17.952H45.5794C45.1367 17.952 44.7447 17.9893 44.4034 18.064C44.0674 18.1387 43.7847 18.2507 43.5554 18.4C43.3314 18.5493 43.1607 18.736 43.0434 18.96C42.926 19.1787 42.8674 19.4293 42.8674 19.712C42.8674 20 42.9234 20.2587 43.0354 20.488C43.1527 20.7173 43.3234 20.9093 43.5474 21.064C43.7714 21.2187 44.0434 21.3387 44.3634 21.424C44.6887 21.504 45.0594 21.544 45.4754 21.544C45.8647 21.544 46.2354 21.5093 46.5874 21.44C46.9447 21.3653 47.2754 21.264 47.5794 21.136C47.8834 21.0027 48.1607 20.8453 48.4114 20.664C48.662 20.4773 48.8727 20.272 49.0434 20.048C49.2194 19.824 49.3554 19.5813 49.4514 19.32C49.5474 19.0533 49.5954 18.7787 49.5954 18.496V14.536C49.5954 13.992 49.5234 13.5067 49.3794 13.08C49.2407 12.648 49.0327 12.2827 48.7554 11.984C48.4834 11.6853 48.1474 11.4587 47.7474 11.304C47.3474 11.1493 46.886 11.072 46.3634 11.072C45.8407 11.072 45.3874 11.1387 45.0034 11.272C44.6247 11.4053 44.3127 11.5973 44.0674 11.848C43.822 12.0987 43.638 12.4053 43.5154 12.768C43.398 13.1253 43.3394 13.5307 43.3394 13.984H37.7954ZM83.2741 2.12V7.016H76.1221L76.5061 6.632V25H70.6021V6.632L70.9861 7.016H63.8341V2.12H83.2741ZM89.8234 17.28V25H84.2554V7.36H89.8234V13.832L89.8074 13.856C89.9407 12.864 90.1407 11.968 90.4074 11.168C90.6794 10.368 91.034 9.68533 91.4714 9.12C91.9087 8.55467 92.4394 8.12 93.0634 7.816C93.6874 7.512 94.418 7.36 95.2554 7.36H96.4234V12.576H94.0554C93.2234 12.576 92.5354 12.6693 91.9914 12.856C91.4474 13.0427 91.0154 13.328 90.6954 13.712C90.3754 14.096 90.1487 14.584 90.0154 15.176C89.8874 15.768 89.8234 16.4693 89.8234 17.28ZM97.5454 13.984C97.5454 12.8853 97.7454 11.8987 98.1454 11.024C98.5507 10.1493 99.1267 9.40533 99.8734 8.792C100.625 8.17333 101.537 7.70133 102.609 7.376C103.687 7.04533 104.897 6.88 106.241 6.88C107.612 6.88 108.833 7.05333 109.905 7.4C110.983 7.74133 111.892 8.24 112.633 8.896C113.375 9.54667 113.94 10.3467 114.329 11.296C114.719 12.2453 114.913 13.3253 114.913 14.536V25H109.345V20.504L109.369 20.496C109.247 21.0133 109.079 21.4933 108.865 21.936C108.652 22.3787 108.396 22.7867 108.097 23.16C107.799 23.528 107.46 23.856 107.081 24.144C106.703 24.432 106.289 24.6747 105.841 24.872C105.399 25.0693 104.924 25.2187 104.417 25.32C103.911 25.4267 103.377 25.48 102.817 25.48C101.948 25.48 101.156 25.3547 100.441 25.104C99.732 24.8587 99.124 24.512 98.6174 24.064C98.1107 23.6107 97.7187 23.0693 97.4414 22.44C97.164 21.8053 97.0254 21.0987 97.0254 20.32C97.0254 19.4773 97.1934 18.7227 97.5294 18.056C97.8707 17.3893 98.364 16.8267 99.0094 16.368C99.66 15.904 100.452 15.552 101.385 15.312C102.319 15.0667 103.383 14.944 104.577 14.944H109.465V17.952H105.329C104.887 17.952 104.495 17.9893 104.153 18.064C103.817 18.1387 103.535 18.2507 103.305 18.4C103.081 18.5493 102.911 18.736 102.793 18.96C102.676 19.1787 102.617 19.4293 102.617 19.712C102.617 20 102.673 20.2587 102.785 20.488C102.903 20.7173 103.073 20.9093 103.297 21.064C103.521 21.2187 103.793 21.3387 104.113 21.424C104.439 21.504 104.809 21.544 105.225 21.544C105.615 21.544 105.985 21.5093 106.337 21.44C106.695 21.3653 107.025 21.264 107.329 21.136C107.633 21.0027 107.911 20.8453 108.161 20.664C108.412 20.4773 108.623 20.272 108.793 20.048C108.969 19.824 109.105 19.5813 109.201 19.32C109.297 19.0533 109.345 18.7787 109.345 18.496V14.536C109.345 13.992 109.273 13.5067 109.129 13.08C108.991 12.648 108.783 12.2827 108.505 11.984C108.233 11.6853 107.897 11.4587 107.497 11.304C107.097 11.1493 106.636 11.072 106.113 11.072C105.591 11.072 105.137 11.1387 104.753 11.272C104.375 11.4053 104.063 11.5973 103.817 11.848C103.572 12.0987 103.388 12.4053 103.265 12.768C103.148 13.1253 103.089 13.5307 103.089 13.984H97.5454ZM121.894 16.176C121.894 16.9067 121.972 17.552 122.126 18.112C122.281 18.672 122.508 19.144 122.806 19.528C123.105 19.9067 123.47 20.1947 123.902 20.392C124.334 20.5893 124.828 20.688 125.382 20.688C125.841 20.688 126.244 20.6213 126.59 20.488C126.937 20.3547 127.236 20.1653 127.486 19.92C127.737 19.6747 127.942 19.3787 128.102 19.032C128.262 18.6853 128.382 18.2987 128.462 17.872H134.006C133.868 19.008 133.561 20.0427 133.086 20.976C132.612 21.9093 131.998 22.712 131.246 23.384C130.5 24.0507 129.63 24.568 128.638 24.936C127.646 25.2987 126.561 25.48 125.382 25.48C124.497 25.48 123.657 25.3813 122.862 25.184C122.068 24.9867 121.332 24.7013 120.654 24.328C119.982 23.9493 119.374 23.4907 118.83 22.952C118.292 22.408 117.833 21.792 117.454 21.104C117.076 20.416 116.785 19.6587 116.582 18.832C116.38 18 116.278 17.1147 116.278 16.176C116.278 15.2373 116.38 14.3547 116.582 13.528C116.785 12.7013 117.076 11.944 117.454 11.256C117.833 10.5627 118.292 9.94667 118.83 9.408C119.369 8.864 119.977 8.40533 120.654 8.032C121.332 7.65867 122.068 7.37333 122.862 7.176C123.657 6.97867 124.497 6.88 125.382 6.88C126.561 6.88 127.646 7.064 128.638 7.432C129.636 7.79467 130.508 8.30933 131.254 8.976C132.001 9.64267 132.612 10.4453 133.086 11.384C133.561 12.3173 133.868 13.352 134.006 14.488H128.462C128.382 14.0613 128.262 13.6747 128.102 13.328C127.942 12.9813 127.737 12.6853 127.486 12.44C127.236 12.1947 126.937 12.0053 126.59 11.872C126.244 11.7387 125.841 11.672 125.382 11.672C124.828 11.672 124.334 11.7707 123.902 11.968C123.47 12.16 123.105 12.448 122.806 12.832C122.508 13.2107 122.281 13.68 122.126 14.24C121.972 14.8 121.894 15.4453 121.894 16.176ZM153.019 7.36L145.555 16.272V16.12L153.619 25H146.763L140.955 18.4L141.011 18.376V25H135.443V1.32H141.011V14.68L140.955 14.656L146.619 7.36H153.019ZM156.956 16.616C156.956 17.336 157.044 17.9787 157.22 18.544C157.401 19.1093 157.663 19.5893 158.004 19.984C158.345 20.3787 158.759 20.68 159.244 20.888C159.735 21.0907 160.289 21.192 160.908 21.192C161.313 21.192 161.687 21.1467 162.028 21.056C162.375 20.96 162.687 20.8187 162.964 20.632C163.247 20.4453 163.495 20.2133 163.708 19.936C163.921 19.6587 164.108 19.3333 164.268 18.96H169.404C169.153 19.9733 168.767 20.8827 168.244 21.688C167.721 22.4933 167.087 23.1787 166.34 23.744C165.593 24.304 164.745 24.7333 163.796 25.032C162.852 25.3307 161.836 25.48 160.748 25.48C159.404 25.48 158.177 25.256 157.068 24.808C155.959 24.3547 155.007 23.72 154.212 22.904C153.417 22.088 152.801 21.1093 152.364 19.968C151.932 18.8213 151.716 17.5547 151.716 16.168C151.716 14.7813 151.932 13.52 152.364 12.384C152.796 11.2427 153.404 10.264 154.188 9.448C154.972 8.632 155.913 8 157.012 7.552C158.111 7.104 159.324 6.88 160.652 6.88C161.98 6.88 163.185 7.104 164.268 7.552C165.351 7.99467 166.276 8.62133 167.044 9.432C167.817 10.2373 168.415 11.2107 168.836 12.352C169.263 13.4933 169.476 14.7627 169.476 16.16C169.476 16.3733 169.471 16.592 169.46 16.816C169.449 17.04 169.431 17.2613 169.404 17.48H154.884V14.44H166.388L164.324 17.416C164.34 17.192 164.351 16.976 164.356 16.768C164.367 16.5547 164.372 16.352 164.372 16.16C164.372 15.312 164.295 14.5707 164.14 13.936C163.985 13.3013 163.753 12.7707 163.444 12.344C163.135 11.9173 162.751 11.6 162.292 11.392C161.833 11.1787 161.3 11.072 160.692 11.072C160.089 11.072 159.556 11.1733 159.092 11.376C158.628 11.5787 158.239 11.8773 157.924 12.272C157.609 12.6613 157.369 13.144 157.204 13.72C157.039 14.296 156.956 14.9573 156.956 15.704V16.616ZM176.48 17.28V25H170.912V7.36H176.48V13.832L176.464 13.856C176.597 12.864 176.797 11.968 177.064 11.168C177.336 10.368 177.69 9.68533 178.128 9.12C178.565 8.55467 179.096 8.12 179.72 7.816C180.344 7.512 181.074 7.36 181.912 7.36H183.08V12.576H180.712C179.88 12.576 179.192 12.6693 178.648 12.856C178.104 13.0427 177.672 13.328 177.352 13.712C177.032 14.096 176.805 14.584 176.672 15.176C176.544 15.768 176.48 16.4693 176.48 17.28Z"
        fill="#0E1217" />
    <line y1="34.5" x2="148" y2="34.5" stroke="black" />
    <line x1="152" y1="34.5" x2="160" y2="34.5" stroke="black" />
    <line x1="164" y1="34.5" x2="172" y2="34.5" stroke="black" />
    <line x1="176" y1="34.5" x2="184" y2="34.5" stroke="black" />
</svg>
    